# xmcd CD database file
#
# Track frame offsets:
#	150
#	19625
#	31491
#	45801
#	54744
#	69930
#	79270
#	95388
#	122649
#	136959
#	155900
#	161001
#	172734
#	179425
#	192633
#	204001
#	227386
#
# Disc length: 3291 seconds
#
# Revision: 1
# Processed by: cddbd v1.4PL0 Copyright (c) Steve Scherf et al.
# Submitted via: CDex 1.50beta9
#
DISCID=d40cd911
DTITLE=Calexico - The Black Light
DYEAR=1900
DGENRE=
TTITLE0=Gypsy's Curse
TTITLE1=Fake Fur
TTITLE2=The Ride (pt II)
TTITLE3=Where Water Flows
TTITLE4=The Black Light
TTITLE5=Sideshow
TTITLE6=Chach
TTITLE7=Missing
TTITLE8=Minas De Cobre (for better metal)
TTITLE9=Over Your Shoulder
TTITLE10=Vinegaroon
TTITLE11=Trigger
TTITLE12=Sprawl
TTITLE13=Stray
TTITLE14=Old Man Waltz
TTITLE15=Bloodflow
TTITLE16=Frontera
EXTD=
EXTT0=
EXTT1=
EXTT2=
EXTT3=
EXTT4=
EXTT5=
EXTT6=
EXTT7=
EXTT8=
EXTT9=
EXTT10=
EXTT11=
EXTT12=
EXTT13=
EXTT14=
EXTT15=
EXTT16=
PLAYORDER=
